<svg width="30" height="30" viewBox="0 0 30 30" fill="none" xmlns="http://www.w3.org/2000/svg">
<path d="M11.5 7H18.5C18.777 7 19 7.223 19 7.5C19 7.777 18.777 8 18.5 8H11.5C11.223 8 11 7.777 11 7.5C11 7.223 11.223 7 11.5 7ZM4.5 7C3.676 7 3.078 7.694 3.002 8.45L1.002 28.45C0.914003 29.33 1.676 30 2.5 30H27.5C28.324 30 29.086 29.328 28.998 28.45L26.998 8.45C26.922 7.695 26.324 7 25.5 7H22.5C21.83 7 21.85 8 22.5 8H25.5C25.784 8 25.967 8.204 26.002 8.55L28.002 28.55C28.025 28.775 27.784 29 27.5 29H2.5C2.216 29 1.975 28.775 1.998 28.55L3.998 8.55C4.033 8.204 4.216 8 4.5 8H7.5C8.17 8 8.154 7 7.5 7H4.5ZM15 0C11.692 0 9 2.692 9 6V10.5C9 11.165 10 11.165 10 10.5V6C10 3.233 12.233 1 15 1C17.767 1 20 3.233 20 6V10.5C20 11.165 21 11.157 21 10.5V6C21 2.692 18.308 0 15 0Z" fill="black"/>
</svg>
