<svg width="31" height="31" viewBox="0 0 31 31" fill="none" xmlns="http://www.w3.org/2000/svg">
<path d="M16.3176 15.5L22.1635 9.65417C22.3892 9.42841 22.3892 9.06238 22.1635 8.83663C21.9377 8.61087 21.5717 8.61087 21.3459 8.83663L15.5 14.6824L9.65416 8.83655C9.4284 8.6108 9.06238 8.6108 8.83662 8.83655C8.61079 9.06231 8.61079 9.42834 8.83662 9.65409L14.6824 15.5L8.83655 21.3459C8.61072 21.5717 8.61072 21.9377 8.83655 22.1635C8.94943 22.2764 9.09735 22.3328 9.24535 22.3328C9.39335 22.3328 9.54128 22.2764 9.65416 22.1635L15.5 16.3176L21.3459 22.1635C21.4588 22.2764 21.6067 22.3328 21.7547 22.3328C21.9027 22.3328 22.0506 22.2764 22.1635 22.1635C22.3892 21.9377 22.3892 21.5717 22.1635 21.3459L16.3176 15.5Z" fill="black"/>
<path d="M15.5 1.26367C17.4224 1.26367 19.2866 1.63996 21.0411 2.38198C22.7362 3.09893 24.2588 4.12561 25.5666 5.4334C26.8745 6.74126 27.9011 8.26383 28.6181 9.95896C29.3601 11.7134 29.7363 13.5776 29.7363 15.5C29.7363 17.4224 29.3601 19.2866 28.618 21.0411C27.901 22.7362 26.8744 24.2588 25.5665 25.5666C24.2587 26.8745 22.7361 27.9011 21.041 28.6181C19.2866 29.3601 17.4224 29.7363 15.5 29.7363C13.5776 29.7363 11.7134 29.3601 9.95896 28.618C8.26383 27.901 6.74126 26.8744 5.4334 25.5665C4.12561 24.2587 3.09893 22.7361 2.38198 21.041C1.63996 19.2866 1.26367 17.4224 1.26367 15.5C1.26367 13.5776 1.63996 11.7134 2.38198 9.95896C3.09893 8.26383 4.12561 6.74126 5.4334 5.4334C6.74126 4.12561 8.26383 3.09893 9.95896 2.38198C11.7134 1.63996 13.5776 1.26367 15.5 1.26367ZM15.5 0.107422C6.99889 0.107422 0.107422 6.99889 0.107422 15.5C0.107422 24.0011 6.99889 30.8926 15.5 30.8926C24.0011 30.8926 30.8926 24.0011 30.8926 15.5C30.8926 6.99889 24.0011 0.107422 15.5 0.107422Z" fill="black"/>
</svg>
