<svg width="30" height="30" viewBox="0 0 30 30" fill="none" xmlns="http://www.w3.org/2000/svg">
<path d="M20.6836 26.3672C20.5682 26.3673 20.4538 26.3446 20.3472 26.3004C20.2405 26.2563 20.1436 26.1916 20.0619 26.11L9.22852 15.276C9.06375 15.1112 8.97119 14.8877 8.97119 14.6546C8.97119 14.4216 9.06375 14.198 9.22852 14.0332L20.0619 3.19924C20.1435 3.1176 20.2404 3.05284 20.347 3.00864C20.4537 2.96444 20.568 2.94168 20.6834 2.94165C20.7988 2.94162 20.9131 2.96433 21.0198 3.00848C21.1264 3.05263 21.2233 3.11735 21.305 3.19895C21.3866 3.28055 21.4514 3.37744 21.4956 3.48407C21.5398 3.5907 21.5626 3.70499 21.5626 3.82042C21.5626 3.93585 21.5399 4.05016 21.4958 4.15681C21.4516 4.26346 21.3869 4.36038 21.3053 4.44202L11.093 14.6543L21.3053 24.8666C21.4283 24.9895 21.5121 25.1462 21.546 25.3167C21.5799 25.4873 21.5625 25.6641 21.496 25.8247C21.4294 25.9854 21.3167 26.1226 21.1721 26.2192C21.0275 26.3158 20.8575 26.3673 20.6836 26.3672V26.3672Z" fill="black"/>
</svg>
