<svg width="24" height="24" viewBox="0 0 24 24" fill="none" xmlns="http://www.w3.org/2000/svg">
<g clip-path="url(#clip0_143_2953)">
<path d="M21.7912 3.12752C20.25 1.65002 17.8425 0.915019 15.645 1.25814C14.0625 1.50002 12.7819 2.29877 12.0131 3.50252C11.2631 2.27814 10.0219 1.47002 8.46374 1.21127C6.28687 0.853144 3.77624 1.62189 2.20687 3.12564C1.51368 3.78974 0.961101 4.58643 0.581981 5.46836C0.202862 6.35029 0.00494337 7.29944 -6.5143e-06 8.25939C-0.0113485 9.25516 0.17768 10.243 0.555838 11.1643C0.933995 12.0855 1.49356 12.9213 2.20124 13.6219L11.0625 22.4888C11.1845 22.6118 11.3297 22.7094 11.4896 22.7761C11.6496 22.8427 11.8211 22.877 11.9944 22.877C12.1676 22.877 12.3392 22.8427 12.4991 22.7761C12.6591 22.7094 12.8042 22.6118 12.9262 22.4888L21.7931 13.62C22.5016 12.9201 23.0621 12.0848 23.4412 11.1639C23.8203 10.243 24.0103 9.25524 24 8.25939C23.9945 7.29963 23.7962 6.35075 23.4168 5.46915C23.0373 4.58755 22.4845 3.79123 21.7912 3.12752V3.12752ZM21 12.825L12.1369 21.6938C12.1193 21.7125 12.0981 21.7274 12.0746 21.7376C12.051 21.7479 12.0257 21.7531 12 21.7531C11.9743 21.7531 11.9489 21.7479 11.9254 21.7376C11.9019 21.7274 11.8807 21.7125 11.8631 21.6938L2.99999 12.825C2.39813 12.2303 1.92199 11.5207 1.59988 10.7383C1.27778 9.95589 1.11628 9.11671 1.12499 8.27064C1.12926 7.46032 1.29646 6.65913 1.61664 5.91473C1.93682 5.17033 2.40344 4.49793 2.98874 3.93752C4.09312 2.87439 5.75999 2.25002 7.35562 2.25002C7.6659 2.24975 7.97568 2.27483 8.28187 2.32502C9.21937 2.47877 10.47 2.94752 11.1731 4.30502C11.2522 4.45666 11.3708 4.58411 11.5163 4.67389C11.6619 4.76366 11.829 4.81243 12 4.81502V4.81502C12.1667 4.81543 12.3304 4.77066 12.4737 4.68549C12.6169 4.60031 12.7345 4.4779 12.8137 4.33127V4.33127C13.5431 2.98127 14.8425 2.52002 15.8025 2.37002C17.6344 2.08502 19.7212 2.71502 20.9962 3.93939C21.584 4.49831 22.0533 5.16984 22.3761 5.91396C22.6989 6.65808 22.8685 7.45956 22.875 8.27064C22.8837 9.11671 22.7222 9.95589 22.4001 10.7383C22.078 11.5207 21.6019 12.2303 21 12.825V12.825Z" fill="black"/>
</g>
<defs>
<clipPath id="clip0_143_2953">
<rect width="24" height="24" fill="white"/>
</clipPath>
</defs>
</svg>
