<svg width="30" height="30" viewBox="0 0 30 30" fill="none" xmlns="http://www.w3.org/2000/svg">
<path d="M9.3164 3.63278C9.43184 3.63273 9.54616 3.65542 9.65283 3.69956C9.7595 3.74369 9.85643 3.80841 9.93808 3.89001L20.7715 14.724C20.9362 14.8888 21.0288 15.1123 21.0288 15.3454C21.0288 15.5784 20.9362 15.802 20.7715 15.9668L9.93808 26.8008C9.85648 26.8824 9.75959 26.9472 9.65296 26.9914C9.54633 27.0356 9.43204 27.0583 9.31661 27.0583C9.20118 27.0584 9.08687 27.0357 8.98022 26.9915C8.87357 26.9474 8.77665 26.8826 8.69501 26.801C8.61337 26.7194 8.5486 26.6226 8.50441 26.5159C8.46021 26.4093 8.43744 26.295 8.43742 26.1796C8.43739 26.0641 8.4601 25.9498 8.50425 25.8432C8.54839 25.7365 8.61312 25.6396 8.69472 25.558L18.907 15.3457L8.69472 5.13337C8.57172 5.01045 8.48795 4.85381 8.45401 4.68327C8.42006 4.51272 8.43746 4.33594 8.50402 4.17529C8.57058 4.01465 8.68329 3.87735 8.8279 3.78078C8.97251 3.68421 9.14251 3.63271 9.3164 3.63278V3.63278Z" fill="black"/>
</svg>
