<svg width="35" height="35" viewBox="0 0 35 35" fill="none" xmlns="http://www.w3.org/2000/svg">
<g clip-path="url(#clip0_143_2960)">
<path fill-rule="evenodd" clip-rule="evenodd" d="M21.8422 24.1402C19.9899 25.5112 25.7496 19.6213 24.1106 21.8602C24.1516 21.857 24.0756 21.9811 23.8208 22.2923C23.8208 22.2923 28.198 26.6399 30.3466 28.8526C31.0926 29.6592 29.7467 31.2692 28.8323 30.4287C26.8865 28.5409 22.2824 23.8492 22.2753 23.8416L21.8422 24.1402V24.1402Z" fill="black"/>
<path d="M15.4104 26.3385C18.2268 26.3112 21.0148 25.1447 23.0196 23.1634C25.4007 20.8102 26.6268 17.3288 26.1992 14.0049C25.4663 8.30916 20.784 4.44385 15.3404 4.44385C11.2044 4.44385 7.18486 7.03111 5.42174 10.7827C4.07205 13.6549 4.06932 17.1226 5.42174 19.9997C7.17229 23.725 11.1262 26.2986 15.2699 26.3385C15.3169 26.3385 15.3639 26.3385 15.4104 26.3385V26.3385ZM15.2813 24.5136C11.0753 24.4731 7.15096 21.2203 6.37057 17.0499C5.82041 14.1099 6.85893 10.9281 9.02236 8.84018C11.5478 6.40166 15.5176 5.58518 18.8185 6.96713C21.7717 8.20361 23.9821 11.0747 24.3896 14.2378C24.7385 16.9492 23.7656 19.7908 21.8537 21.7481C20.1764 23.4653 17.8243 24.4901 15.3989 24.5136C15.3596 24.5136 15.3207 24.5136 15.2813 24.5136V24.5136Z" fill="black"/>
</g>
<defs>
<clipPath id="clip0_143_2960">
<rect width="35" height="35" fill="white"/>
</clipPath>
</defs>
</svg>
