<svg width="27" height="20" viewBox="0 0 27 20" fill="none" xmlns="http://www.w3.org/2000/svg">
<path d="M6.12501 18.6251C6.12501 18.8572 6.03282 19.0797 5.86872 19.2438C5.70463 19.4079 5.48207 19.5001 5.25001 19.5001C5.01794 19.5001 4.79538 19.4079 4.63129 19.2438C4.46719 19.0797 4.37501 18.8572 4.37501 18.6251V3.23736L2.36951 5.24461C2.28815 5.32596 2.19157 5.3905 2.08528 5.43453C1.97898 5.47855 1.86506 5.50122 1.75001 5.50122C1.51765 5.50122 1.29481 5.40891 1.13051 5.24461C0.966205 5.08031 0.873901 4.85747 0.873901 4.62511C0.873901 4.39275 0.966205 4.16991 1.13051 4.00561L4.63051 0.50736L4.64276 0.49511C4.80726 0.33534 5.0281 0.246846 5.25741 0.248811C5.48672 0.250777 5.70602 0.343044 5.86776 0.50561L9.36776 4.00561C9.44911 4.08685 9.51367 4.18332 9.55774 4.2895C9.60181 4.39569 9.62454 4.50952 9.62462 4.62449C9.6247 4.73946 9.60214 4.85332 9.55821 4.95957C9.51429 5.06582 9.44987 5.16238 9.36863 5.24373C9.28739 5.32509 9.19093 5.38964 9.08474 5.43372C8.97855 5.47779 8.86472 5.50051 8.74975 5.5006C8.63478 5.50068 8.52092 5.47811 8.41467 5.43419C8.30842 5.39027 8.21186 5.32585 8.13051 5.24461L6.12501 3.23736V18.6251ZM13.125 2.00011C12.8929 2.00011 12.6704 1.90792 12.5063 1.74383C12.3422 1.57973 12.25 1.35717 12.25 1.12511C12.25 0.893045 12.3422 0.670486 12.5063 0.506391C12.6704 0.342297 12.8929 0.25011 13.125 0.25011H14.875C15.1071 0.25011 15.3296 0.342297 15.4937 0.506391C15.6578 0.670486 15.75 0.893045 15.75 1.12511C15.75 1.35717 15.6578 1.57973 15.4937 1.74383C15.3296 1.90792 15.1071 2.00011 14.875 2.00011H13.125ZM13.125 7.25011C12.8929 7.25011 12.6704 7.15792 12.5063 6.99383C12.3422 6.82973 12.25 6.60717 12.25 6.37511C12.25 6.14305 12.3422 5.92049 12.5063 5.75639C12.6704 5.5923 12.8929 5.50011 13.125 5.50011H18.375C18.6071 5.50011 18.8296 5.5923 18.9937 5.75639C19.1578 5.92049 19.25 6.14305 19.25 6.37511C19.25 6.60717 19.1578 6.82973 18.9937 6.99383C18.8296 7.15792 18.6071 7.25011 18.375 7.25011H13.125ZM13.125 12.5001C12.8929 12.5001 12.6704 12.4079 12.5063 12.2438C12.3422 12.0797 12.25 11.8572 12.25 11.6251C12.25 11.393 12.3422 11.1705 12.5063 11.0064C12.6704 10.8423 12.8929 10.7501 13.125 10.7501H21.875C22.1071 10.7501 22.3296 10.8423 22.4937 11.0064C22.6578 11.1705 22.75 11.393 22.75 11.6251C22.75 11.8572 22.6578 12.0797 22.4937 12.2438C22.3296 12.4079 22.1071 12.5001 21.875 12.5001H13.125ZM12.25 16.8751C12.25 17.1072 12.3422 17.3297 12.5063 17.4938C12.6704 17.6579 12.8929 17.7501 13.125 17.7501H25.375C25.6071 17.7501 25.8296 17.6579 25.9937 17.4938C26.1578 17.3297 26.25 17.1072 26.25 16.8751C26.25 16.643 26.1578 16.4205 25.9937 16.2564C25.8296 16.0923 25.6071 16.0001 25.375 16.0001H13.125C12.8929 16.0001 12.6704 16.0923 12.5063 16.2564C12.3422 16.4205 12.25 16.643 12.25 16.8751Z" fill="black"/>
</svg>
