<svg xmlns="http://www.w3.org/2000/svg" width="32" height="32"><path fill="none" stroke-linejoin="round" stroke-linecap="round" stroke-width="1.454" stroke="#000" d="M21.819 11.636V7.272a5.818 5.818 0 0 0-11.636 0v4.364m-6.412 1.967-.873 9.309c-.248 2.647-.372 3.97.067 4.992a4.364 4.364 0 0 0 1.92 2.108c.977.533 2.306.533 4.964.533h12.302c2.658 0 3.988 0 4.964-.533a4.364 4.364 0 0 0 1.92-2.108c.439-1.022.315-2.346.067-4.992l-.873-9.309c-.21-2.235-.314-3.353-.817-4.198a4.365 4.365 0 0 0-1.879-1.711c-.888-.422-2.011-.422-4.256-.422H10.72c-2.245 0-3.367 0-4.255.422a4.365 4.365 0 0 0-1.879 1.711c-.503.845-.607 1.962-.817 4.198z"/></svg>