<svg xmlns="http://www.w3.org/2000/svg" width="32" height="32"><path fill="none" stroke-linejoin="round" stroke-linecap="round" stroke-width="2.909" stroke="#000" d="M3.47 6.788c-1.1-1.23-1.65-1.844-1.671-2.367-.018-.454.177-.89.527-1.179.403-.333 1.228-.333 2.878-.333h21.59c1.65 0 2.475 0 2.878.333.35.289.545.725.527 1.179-.021.522-.571 1.137-1.671 2.367l-8.3 9.276c-.219.245-.329.368-.407.507a1.48 1.48 0 0 0-.151.395c-.035.156-.035.321-.035.649v7.778c0 .284 0 .427-.046.55a.727.727 0 0 1-.192.284c-.097.088-.229.141-.493.247l-4.945 1.978c-.535.214-.802.321-1.017.276a.725.725 0 0 1-.458-.31c-.121-.183-.121-.471-.121-1.046v-9.756c0-.329 0-.493-.035-.649a1.467 1.467 0 0 0-.151-.395c-.078-.14-.188-.262-.407-.507l-8.3-9.276z"/></svg>